<?xml version="1.0" standalone="no"?>
<!DOCTYPE svg PUBLIC "-//W3C//DTD SVG 20010904//EN"
 "http://www.w3.org/TR/2001/REC-SVG-20010904/DTD/svg10.dtd">
<svg version="1.0" xmlns="http://www.w3.org/2000/svg"
 width="512.000000pt" height="512.000000pt" viewBox="0 0 512.000000 512.000000"
 preserveAspectRatio="xMidYMid meet">
<metadata>
Created by potrace 1.14, written by Peter Selinger 2001-2017
</metadata>
<g transform="translate(0.000000,512.000000) scale(0.100000,-0.100000)"
fill="#000000" stroke="none">
<path d="M0 2560 l0 -2560 2560 0 2560 0 0 2560 0 2560 -2560 0 -2560 0 0
-2560z m3846 1876 c14 -58 -90 -189 -158 -200 -18 -3 -62 -7 -97 -11 -83 -7
-137 -33 -194 -94 -107 -114 -185 -338 -262 -746 -19 -104 -38 -203 -41 -219
l-6 -29 118 6 c71 3 137 11 163 21 24 9 56 16 72 16 26 0 29 -3 29 -35 0 -54
-42 -125 -110 -188 -71 -66 -127 -87 -237 -87 -40 0 -73 -1 -73 -3 0 -1 -22
-149 -49 -327 -28 -179 -70 -460 -95 -625 -58 -379 -86 -519 -142 -708 -92
-308 -178 -470 -329 -623 -84 -85 -113 -108 -185 -143 -118 -57 -221 -81 -347
-82 -75 0 -112 4 -137 16 -68 33 -161 158 -154 208 4 31 58 33 161 7 170 -42
297 -36 415 21 45 22 75 45 103 82 112 141 149 288 259 1032 38 259 92 619
120 800 27 182 50 333 50 338 0 4 -47 7 -105 7 -80 0 -119 -5 -162 -20 -32
-11 -65 -20 -74 -20 -55 0 -12 129 70 211 80 79 108 92 219 97 84 4 93 6 96
26 75 378 108 495 197 685 66 140 145 256 243 356 138 140 230 186 456 226 63
12 117 23 119 25 2 2 17 4 32 4 22 0 30 -6 35 -24z m-1709 -652 c8 -21 -45
-321 -64 -358 -22 -45 -72 -95 -118 -118 -51 -26 -202 -38 -210 -17 -3 8 8 88
24 177 22 120 36 174 55 207 49 83 128 123 244 124 48 1 64 -3 69 -15z m-182
-636 c62 -49 70 -145 30 -365 -32 -174 -154 -802 -161 -824 -3 -9 2 -24 11
-32 12 -13 21 -14 45 -5 42 14 82 66 141 181 67 131 99 141 99 32 0 -124 -90
-290 -222 -409 -81 -73 -154 -109 -234 -114 -133 -9 -180 50 -178 223 1 82 16
171 82 502 94 463 99 497 83 517 -29 35 -82 -15 -163 -154 -51 -87 -75 -109
-99 -94 -17 10 -5 120 17 169 51 109 136 219 222 289 104 83 152 104 243 105
43 1 63 -4 84 -21z"/>
</g>
</svg>
